<?xml version="1.0" encoding="UTF-8"?>
<svg width="10px" height="10px" viewBox="0 0 10 10" version="1.1" xmlns="http://www.w3.org/2000/svg" xmlns:xlink="http://www.w3.org/1999/xlink">
    <!-- Generator: Sketch 61.2 (89653) - https://sketch.com -->
    <title>Path</title>
    <desc>Created with Sketch.</desc>
    <g id="Page-1" stroke="none" stroke-width="1" fill="none" fill-rule="evenodd">
        <g id="jobs/planned_delivery/add-order/1" transform="translate(-430.000000, -648.000000)" fill="#E30000" fill-rule="nonzero">
            <g id="Group-13" transform="translate(430.000000, 642.000000)">
                <path d="M1.39223897,10.6156195 L7.43012503,8.6085626 L5.42147387,14.6779027 C5.24793244,15.2044244 5.53018917,15.7732319 6.05191193,15.9483696 C6.5736347,16.1235074 7.13725773,15.8386544 7.31079923,15.3121326 L9.94789967,7.3240462 C10.0683836,6.96325127 9.9761787,6.56472 9.70983537,6.29507614 C9.44349203,6.02543227 9.04888647,5.9311205 8.69100113,6.05157214 L0.775722272,8.71694367 C0.407135039,8.80080557 0.11748774,9.0882381 0.0281984064,9.4587516 C-0.0610908936,9.82926513 0.0654065063,10.2188369 0.354663773,10.4641614 C0.643921073,10.7094858 1.04595621,10.7681721 1.39223897,10.6156195 L1.39223897,10.6156195 Z" id="Path"></path>
            </g>
        </g>
    </g>
</svg>