<?xml version="1.0" encoding="UTF-8"?>
<svg width="28px" height="28px" viewBox="0 0 28 28" version="1.1" xmlns="http://www.w3.org/2000/svg" xmlns:xlink="http://www.w3.org/1999/xlink">
    <!-- Generator: sketchtool 61.2 (101010) - https://sketch.com -->
    <title>86FC2C79-9F02-4C1E-849B-C51F60DFD57E</title>
    <desc>Created with sketchtool.</desc>
    <g id="Page-1" stroke="none" stroke-width="1" fill="none" fill-rule="evenodd">
        <g id="add-course" transform="translate(-1364.000000, -218.000000)">
            <g id="Group-23" transform="translate(1364.000000, 218.000000)">
                <rect id="Rectangle-3-Copy-10" stroke="#E6EBED" fill="#FFFFFF" transform="translate(14.000000, 14.000000) scale(-1, 1) translate(-14.000000, -14.000000) " x="0.5" y="0.5" width="27" height="27" rx="6"></rect>
                <g id="Group-18" transform="translate(7.000000, 7.000000)">
                    <polygon id="Rectangle-12" transform="translate(7.437500, 7.437500) scale(-1, -1) rotate(90.000000) translate(-7.437500, -7.437500) " points="8.8817842e-16 -8.23119058e-16 14.875 -8.23119058e-16 14.875 14.875 8.8817842e-16 14.875"></polygon>
                    <path d="M0.875,2.09215611 C1.2807187,1.6864374 1.6864374,1.2807187 2.09215611,0.875 C3.87731839,2.63987635 5.66248068,4.42503864 7.42735703,6.21020093 C9.21251932,4.42503864 10.9976816,2.63987635 12.7828439,0.875 C13.1885626,1.2807187 13.5942813,1.6864374 14,2.09215611 C12.2148377,3.87731839 10.4296754,5.66248068 8.66479907,7.42735703 C10.4296754,9.21251932 12.2148377,10.9976816 14,12.7828439 C13.5942813,13.1885626 13.1885626,13.5942813 12.7828439,14 C10.9976816,12.2148377 9.21251932,10.4296754 7.42735703,8.66479907 C5.66248068,10.4296754 3.87731839,12.2148377 2.09215611,14 C1.6864374,13.5942813 1.2807187,13.1885626 0.875,12.7828439 C2.63987635,10.9976816 4.42503864,9.21251932 6.21020093,7.42735703 C4.42503864,5.66248068 2.63987635,3.87731839 0.875,2.09215611 Z" id="Path" stroke="#FFFFFF" fill="#58606E" stroke-linejoin="round"></path>
                </g>
            </g>
        </g>
    </g>
</svg>