<?xml version="1.0" encoding="UTF-8"?>
<svg width="17px" height="17px" viewBox="0 0 17 17" version="1.1" xmlns="http://www.w3.org/2000/svg" xmlns:xlink="http://www.w3.org/1999/xlink">
    <!-- Generator: sketchtool 61.2 (101010) - https://sketch.com -->
    <title>EFDFAAC3-EF6C-42FC-986B-6EC0BA5DBA6A</title>
    <desc>Created with sketchtool.</desc>
    <g id="Page-1" stroke="none" stroke-width="1" fill="none" fill-rule="evenodd">
        <g id="add-course" transform="translate(-1294.000000, -565.000000)">
            <g id="Group-7" transform="translate(1294.000000, 565.000000)">
                <rect id="Rectangle-12" transform="translate(8.500000, 8.500000) scale(-1, -1) rotate(90.000000) translate(-8.500000, -8.500000) " x="0" y="0" width="17" height="17"></rect>
                <g id="play-button" transform="translate(1.000000, 1.000000)" fill="#525A69" fill-rule="nonzero" stroke="#FFFFFF" stroke-width="0.5">
                    <path d="M14.9382168,7.22727273 C14.8128671,3.3020979 11.64,0.129335664 7.71493007,0.00398601399 C5.57916084,-0.0637762238 3.58101399,0.749160839 2.1043007,2.27381119 C0.68465035,3.73951049 -0.0612587413,5.67178322 0.00398601399,7.71493007 C0.129230769,11.64 3.3020979,14.8128671 7.22716783,14.9381119 C7.30888112,14.9407343 7.38986014,14.941993 7.47104895,14.941993 C9.51167832,14.941993 11.4176224,14.1345105 12.8377972,12.6682867 C14.2574476,11.2026923 15.0034615,9.27031469 14.9382168,7.22727273 Z M11.7076573,11.5737063 C10.5865385,12.7312238 9.08192308,13.3686713 7.47104895,13.3686713 C7.40664336,13.3686713 7.34223776,13.3676224 7.27730769,13.3656294 C4.17954545,13.2667133 1.67548951,10.7626573 1.57646853,7.66479021 C1.52496503,6.05129371 2.11374126,4.52548951 3.23444056,3.3684965 C4.35555944,2.21097902 5.86017483,1.57353147 7.47104895,1.57353147 C7.53545455,1.57353147 7.59986014,1.57458042 7.66479021,1.57657343 C10.7625524,1.67548951 13.2666084,4.17954545 13.3656294,7.27741259 C13.4171329,8.89090909 12.8282517,10.4167133 11.7076573,11.5737063 Z" id="Shape"></path>
                    <path d="M9.9215035,7.03699301 L6.6084965,4.66153846 C6.2551049,4.40811189 5.76314685,4.6606993 5.76314685,5.09559441 L5.76314685,9.84660839 C5.76314685,10.2815035 6.2551049,10.5340909 6.6084965,10.2806643 L9.9213986,7.9051049 C10.2186713,7.69206294 10.2186713,7.25013986 9.9215035,7.03699301 Z" id="Path"></path>
                </g>
            </g>
        </g>
    </g>
</svg>