<?xml version="1.0" encoding="UTF-8"?>
<svg width="16px" height="16px" viewBox="0 0 16 16" version="1.1" xmlns="http://www.w3.org/2000/svg" xmlns:xlink="http://www.w3.org/1999/xlink">
    <!-- Generator: sketchtool 61.2 (101010) - https://sketch.com -->
    <title>AD3F037C-23DA-46D1-B6A5-9D02C5F25C1D</title>
    <desc>Created with sketchtool.</desc>
    <g id="Page-1" stroke="none" stroke-width="1" fill="none" fill-rule="evenodd">
        <g id="add-course" transform="translate(-1294.000000, -628.000000)">
            <g id="Group-11" transform="translate(1294.000000, 628.000000)">
                <rect id="Rectangle-12" transform="translate(8.500000, 8.500000) scale(-1, -1) rotate(90.000000) translate(-8.500000, -8.500000) " x="0" y="0" width="17" height="17"></rect>
                <g id="Group-26" transform="translate(1.000000, 1.000000)" fill="#525A69" fill-rule="nonzero">
                    <path d="M7.44767442,14.8953488 C3.34883721,14.8953488 -3.22222869e-14,11.5465116 -3.22222869e-14,7.44767442 C-3.22222869e-14,3.34883721 3.34883721,-3.22222869e-14 7.44767442,-3.22222869e-14 C11.5465116,-3.22222869e-14 14.8953488,3.34883721 14.8953488,7.44767442 C14.8953488,11.5465116 11.5639535,14.8953488 7.44767442,14.8953488 Z M7.44767442,1.4127907 C4.11627907,1.4127907 1.4127907,4.11627907 1.4127907,7.44767442 C1.4127907,10.7790698 4.11627907,13.4825581 7.44767442,13.4825581 C10.7790698,13.4825581 13.4825581,10.7790698 13.4825581,7.44767442 C13.4825581,4.11627907 10.7790698,1.4127907 7.44767442,1.4127907 Z" id="Shape" stroke="#FFFFFF" stroke-width="0.2"></path>
                    <g id="Group" transform="translate(5.215116, 4.273256)">
                        <path d="M1.34302326,0.802325581 L1.34302326,5.52906977 C1.34302326,5.87790698 1.06395349,6.1744186 0.697674419,6.1744186 C0.331395349,6.1744186 0.0523255814,5.89534884 0.0523255814,5.52906977 L0.0523255814,0.802325581 C0.0523255814,0.453488372 0.331395349,0.156976744 0.697674419,0.156976744 C1.06395349,0.156976744 1.34302326,0.453488372 1.34302326,0.802325581 Z" id="Path"></path>
                        <path d="M4.4127907,0.802325581 L4.4127907,5.52906977 C4.4127907,5.87790698 4.13372093,6.1744186 3.76744186,6.1744186 C3.41860465,6.1744186 3.12209302,5.89534884 3.12209302,5.52906977 L3.12209302,0.802325581 C3.12209302,0.453488372 3.40116279,0.156976744 3.76744186,0.156976744 C4.13372093,0.174418605 4.4127907,0.453488372 4.4127907,0.802325581 Z" id="Path"></path>
                    </g>
                </g>
            </g>
        </g>
    </g>
</svg>